<svg id="svg" version="1.1" xmlns="http://www.w3.org/2000/svg" xmlns:xlink="http://www.w3.org/1999/xlink" width="400" height="96.25761531766754" viewBox="0, 0, 400,96.25761531766754"><g id="svgg"><path id="path0" d="M92.113 8.332 C 84.752 9.258,80.529 15.245,80.020 25.474 C 79.636 33.206,80.883 38.782,86.084 52.583 C 90.917 65.406,91.944 71.355,89.990 75.187 C 88.500 78.107,84.634 79.230,80.924 77.820 C 80.462 77.644,80.027 77.500,79.958 77.500 C 79.797 77.500,79.799 87.691,79.961 87.934 C 80.158 88.229,81.622 88.645,83.417 88.914 C 95.470 90.725,102.595 81.505,100.744 66.495 C 100.063 60.975,98.277 54.881,94.200 44.167 C 90.179 33.601,89.224 27.812,90.754 23.289 C 92.264 18.826,95.848 17.347,100.542 19.251 C 100.816 19.362,100.833 19.064,100.833 14.358 L 100.833 9.346 99.975 9.091 C 97.538 8.368,94.308 8.056,92.113 8.332 M116.177 8.337 C 108.273 9.438,104.112 16.104,104.113 27.667 C 104.113 34.419,105.449 39.943,109.998 52.000 C 114.403 63.673,115.530 68.485,114.859 72.750 C 114.117 77.468,110.081 79.553,105.045 77.820 C 104.533 77.644,104.088 77.500,104.055 77.500 C 104.022 77.500,104.015 79.881,104.039 82.792 L 104.083 88.083 104.965 88.366 C 113.612 91.136,121.803 86.939,124.241 78.490 C 126.506 70.639,125.022 61.747,118.665 45.083 C 115.335 36.356,114.277 32.181,114.273 27.750 C 114.266 20.191,118.508 16.736,124.708 19.251 C 124.982 19.362,125.000 19.064,125.000 14.358 L 125.000 9.346 124.142 9.091 C 121.718 8.372,118.273 8.045,116.177 8.337 M253.134 8.336 C 244.746 9.658,238.570 19.387,236.263 34.917 C 235.385 40.828,235.057 53.382,235.639 58.833 C 237.586 77.069,243.400 87.099,253.083 88.925 C 254.794 89.248,260.868 89.185,262.792 88.826 L 263.835 88.631 263.792 68.774 L 263.750 48.917 256.542 48.873 L 249.333 48.830 249.333 53.915 L 249.333 59.000 251.333 59.000 L 253.333 59.000 253.333 68.756 C 253.333 79.714,253.434 78.973,252.143 77.544 C 247.987 72.944,246.256 64.361,246.252 48.333 C 246.249 35.404,247.333 28.257,250.094 23.002 C 253.013 17.446,258.113 16.849,262.681 21.526 L 263.838 22.711 263.794 16.897 L 263.750 11.083 261.667 10.039 C 258.622 8.513,255.706 7.931,253.134 8.336 M332.258 8.875 C 332.206 9.265,331.973 11.308,331.740 13.417 C 331.508 15.525,330.795 21.900,330.156 27.583 C 329.517 33.267,328.734 40.242,328.416 43.083 C 328.098 45.925,327.310 52.938,326.666 58.667 C 325.623 67.937,324.646 76.645,323.658 85.485 C 323.479 87.080,323.333 88.412,323.333 88.443 C 323.333 88.474,325.658 88.500,328.500 88.500 C 331.342 88.500,333.666 88.444,333.665 88.375 C 333.661 88.064,334.518 75.988,334.599 75.208 L 334.691 74.333 337.908 74.333 L 341.126 74.333 341.241 77.458 C 341.304 79.177,341.425 81.971,341.510 83.667 C 341.594 85.362,341.664 87.144,341.665 87.625 L 341.667 88.500 346.919 88.500 L 352.171 88.500 352.082 87.875 C 352.033 87.531,351.880 86.125,351.741 84.750 C 351.602 83.375,350.443 72.275,349.166 60.083 C 347.889 47.892,346.728 36.792,346.585 35.417 C 346.176 31.472,345.188 22.075,345.000 20.333 C 344.771 18.210,344.025 11.000,343.905 9.750 C 343.736 7.987,344.406 8.167,337.999 8.167 L 332.354 8.167 332.258 8.875 M29.208 8.458 C 30.652 8.486,33.015 8.486,34.458 8.458 C 35.902 8.430,34.721 8.408,31.833 8.408 C 28.946 8.408,27.765 8.430,29.208 8.458 M45.364 8.458 C 46.894 8.485,49.444 8.486,51.031 8.458 C 52.618 8.431,51.367 8.408,48.250 8.408 C 45.133 8.408,43.835 8.431,45.364 8.458 M63.446 8.458 C 66.030 8.484,70.305 8.484,72.946 8.458 C 75.588 8.432,73.475 8.411,68.250 8.411 C 63.025 8.411,60.863 8.432,63.446 8.458 M129.280 8.442 C 129.218 8.505,129.167 13.870,129.167 20.365 L 129.167 32.174 122.092 32.129 C 118.200 32.104,115.074 32.140,115.143 32.210 C 115.213 32.280,118.416 32.317,122.260 32.294 L 129.250 32.250 129.293 20.375 L 129.336 8.500 134.833 8.500 L 140.331 8.500 140.374 20.375 L 140.417 32.250 142.833 32.257 L 145.250 32.263 142.876 32.211 L 140.502 32.158 140.459 20.287 L 140.417 8.417 134.905 8.373 C 131.874 8.349,129.342 8.380,129.280 8.442 M150.113 8.458 C 152.696 8.484,156.971 8.484,159.613 8.458 C 162.255 8.432,160.142 8.411,154.917 8.411 C 149.692 8.411,147.530 8.432,150.113 8.458 M270.865 8.458 C 272.029 8.486,273.979 8.486,275.198 8.458 C 276.418 8.429,275.467 8.406,273.083 8.406 C 270.700 8.406,269.702 8.429,270.865 8.458 M302.446 8.443 C 302.384 8.505,302.333 13.868,302.333 20.361 L 302.333 32.167 299.505 32.167 L 296.678 32.167 296.622 30.333 L 296.566 28.499 296.575 30.375 L 296.583 32.250 299.500 32.250 L 302.417 32.250 302.459 20.375 L 302.502 8.500 311.832 8.500 L 321.162 8.500 321.209 13.875 L 321.257 19.250 321.253 13.833 L 321.250 8.417 311.904 8.374 C 306.764 8.350,302.508 8.381,302.446 8.443 M351.409 8.542 C 351.365 8.658,351.349 11.152,351.375 14.085 L 351.422 19.417 351.461 13.958 L 351.500 8.500 364.664 8.500 L 377.829 8.500 377.876 13.875 L 377.923 19.250 377.920 13.833 L 377.917 8.417 364.703 8.374 C 354.174 8.340,351.474 8.374,351.409 8.542 M42.714 9.417 C 42.716 9.875,42.748 10.043,42.786 9.789 C 42.825 9.536,42.824 9.161,42.784 8.956 C 42.744 8.751,42.713 8.958,42.714 9.417 M27.167 48.667 L 27.167 88.500 32.250 88.500 L 37.333 88.500 37.331 87.292 C 37.330 86.627,37.257 83.646,37.168 80.667 C 37.001 75.076,36.780 66.970,36.503 56.250 C 36.415 52.858,36.294 48.752,36.234 47.125 L 36.124 44.167 36.562 44.167 C 36.803 44.167,37.000 44.198,37.000 44.237 C 37.000 44.276,38.015 50.445,39.256 57.946 C 40.496 65.446,42.109 75.221,42.841 79.667 C 43.572 84.112,44.208 87.919,44.255 88.125 L 44.340 88.500 48.837 88.500 L 53.333 88.500 53.333 48.667 L 53.333 8.833 48.231 8.833 L 43.128 8.833 43.235 11.958 C 43.294 13.677,43.452 19.021,43.586 23.833 C 43.721 28.646,43.904 35.021,43.993 38.000 C 44.082 40.979,44.204 45.048,44.263 47.042 L 44.370 50.667 43.878 50.667 C 43.308 50.667,43.469 51.345,42.260 43.833 C 41.854 41.313,41.068 36.438,40.513 33.000 C 39.958 29.563,39.275 25.325,38.995 23.583 C 38.715 21.842,38.120 18.167,37.672 15.417 C 37.225 12.667,36.807 10.060,36.744 9.625 L 36.629 8.833 31.898 8.833 L 27.167 8.833 27.167 48.667 M59.333 48.667 L 59.333 88.500 68.333 88.500 L 77.333 88.500 77.333 83.500 L 77.333 78.500 73.500 78.500 L 69.667 78.500 69.667 66.667 L 69.667 54.833 73.500 54.833 L 77.333 54.833 77.333 49.750 L 77.333 44.667 73.500 44.667 L 69.667 44.667 69.667 31.833 L 69.667 19.000 73.500 19.000 L 77.333 19.000 77.333 13.917 L 77.333 8.833 68.333 8.833 L 59.333 8.833 59.333 48.667 M129.667 48.667 L 129.667 88.500 134.833 88.500 L 140.000 88.500 140.000 48.667 L 140.000 8.833 134.833 8.833 L 129.667 8.833 129.667 48.667 M145.833 48.667 L 145.833 88.500 154.833 88.500 L 163.833 88.500 163.833 83.500 L 163.833 78.500 160.083 78.500 L 156.333 78.500 156.333 66.667 L 156.333 54.833 160.083 54.833 L 163.833 54.833 163.833 49.750 L 163.833 44.667 160.083 44.667 L 156.333 44.667 156.333 31.833 L 156.333 19.000 160.083 19.000 L 163.833 19.000 163.833 13.917 L 163.833 8.833 154.833 8.833 L 145.833 8.833 145.833 48.667 M269.333 48.667 L 269.333 88.500 274.500 88.500 L 279.667 88.500 279.667 70.917 C 279.667 61.246,279.730 53.333,279.807 53.333 C 280.087 53.333,281.950 55.442,282.552 56.441 C 285.708 61.676,287.712 71.934,288.270 85.708 L 288.384 88.500 293.608 88.500 L 298.833 88.500 298.832 87.375 C 298.830 86.025,298.570 81.417,298.327 78.417 C 297.087 63.107,294.635 54.566,289.849 48.891 L 288.844 47.698 290.547 45.971 C 298.303 38.106,298.108 22.307,290.157 14.328 C 286.064 10.221,281.911 8.849,273.542 8.838 L 269.333 8.833 269.333 48.667 M302.833 48.667 L 302.833 88.500 311.833 88.500 L 320.833 88.500 320.833 83.503 L 320.833 78.506 317.042 78.461 L 313.250 78.417 313.207 66.625 L 313.164 54.833 316.999 54.833 L 320.833 54.833 320.833 49.750 L 320.833 44.667 317.000 44.667 L 313.167 44.667 313.167 31.833 L 313.167 19.000 317.000 19.000 L 320.833 19.000 320.833 13.917 L 320.833 8.833 311.833 8.833 L 302.833 8.833 302.833 48.667 M351.833 13.917 L 351.833 19.000 355.667 19.000 L 359.500 19.000 359.500 53.750 L 359.500 88.500 364.667 88.500 L 369.833 88.500 369.833 53.750 L 369.833 19.000 373.667 19.000 L 377.500 19.000 377.500 13.917 L 377.500 8.833 364.667 8.833 L 351.833 8.833 351.833 13.917 M101.129 14.583 C 101.104 17.563,101.140 20.000,101.208 20.000 C 101.277 20.000,101.333 17.563,101.333 14.583 C 101.333 11.604,101.298 9.167,101.254 9.167 C 101.211 9.167,101.155 11.604,101.129 14.583 M125.333 14.533 C 125.287 17.531,125.307 19.926,125.377 19.856 C 125.447 19.786,125.485 17.333,125.461 14.406 L 125.416 9.083 125.333 14.533 M84.491 11.458 L 83.917 12.083 84.542 11.509 C 84.885 11.193,85.167 10.912,85.167 10.884 C 85.167 10.757,85.026 10.877,84.491 11.458 M42.885 14.583 C 42.886 15.133,42.917 15.338,42.954 15.039 C 42.991 14.739,42.990 14.289,42.952 14.039 C 42.914 13.788,42.884 14.033,42.885 14.583 M313.580 25.875 L 313.583 32.250 321.375 32.252 L 329.167 32.255 321.419 32.209 L 313.671 32.163 313.624 25.832 L 313.577 19.500 313.580 25.875 M370.247 25.875 L 370.250 32.250 378.667 32.252 L 387.083 32.255 378.710 32.209 L 370.337 32.164 370.291 25.832 L 370.244 19.500 370.247 25.875 M359.076 25.833 C 359.076 29.271,359.098 30.677,359.125 28.958 C 359.152 27.240,359.152 24.427,359.125 22.708 C 359.098 20.990,359.076 22.396,359.076 25.833 M280.750 20.316 C 285.689 23.156,287.254 33.103,283.799 39.690 C 282.951 41.307,280.656 43.488,279.792 43.498 C 279.723 43.499,279.667 38.175,279.667 31.667 C 279.667 25.158,279.723 19.834,279.792 19.835 C 279.860 19.836,280.292 20.052,280.750 20.316 M116.906 20.542 L 116.417 21.083 116.958 20.594 C 117.256 20.325,117.500 20.081,117.500 20.052 C 117.500 19.923,117.362 20.037,116.906 20.542 M43.050 21.167 C 43.050 21.671,43.081 21.877,43.119 21.625 C 43.158 21.373,43.158 20.960,43.119 20.708 C 43.081 20.456,43.050 20.662,43.050 21.167 M280.080 26.333 L 280.083 32.250 282.625 32.257 L 285.167 32.263 282.669 32.211 L 280.171 32.158 280.124 26.287 L 280.077 20.417 280.080 26.333 M338.568 22.708 C 338.671 24.309,338.917 29.750,339.082 34.083 C 339.259 38.708,339.901 53.162,340.167 58.500 C 340.256 60.288,340.330 62.294,340.331 62.958 L 340.333 64.167 337.861 64.167 C 336.501 64.167,335.356 64.134,335.317 64.094 C 335.277 64.055,335.372 61.861,335.529 59.219 C 335.685 56.578,335.896 52.992,335.998 51.250 C 336.100 49.508,336.291 46.396,336.422 44.333 C 336.553 42.271,336.738 37.508,336.834 33.750 C 336.929 29.992,337.051 25.623,337.105 24.042 L 337.202 21.167 337.836 21.167 L 338.469 21.167 338.568 22.708 M193.125 23.458 C 193.973 23.488,195.360 23.488,196.208 23.458 C 197.056 23.427,196.362 23.403,194.667 23.403 C 192.971 23.403,192.277 23.427,193.125 23.458 M338.205 24.167 C 338.205 24.488,338.240 24.619,338.282 24.458 C 338.323 24.298,338.323 24.035,338.282 23.875 C 338.240 23.715,338.205 23.846,338.205 24.167 M192.077 24.042 C 192.033 24.156,192.017 34.862,192.040 47.833 L 192.083 71.417 194.708 71.463 L 197.333 71.508 197.333 56.193 C 197.333 41.219,197.341 40.869,197.661 40.462 C 198.395 39.528,199.511 39.520,200.116 40.443 C 200.399 40.875,200.419 41.786,200.463 56.201 L 200.508 71.500 203.088 71.500 L 205.667 71.500 205.667 55.990 C 205.667 38.271,205.645 37.943,204.380 36.114 C 202.906 33.984,199.538 34.083,197.944 36.303 L 197.417 37.038 197.373 30.435 L 197.330 23.833 194.743 23.833 C 192.827 23.833,192.136 23.887,192.077 24.042 M43.214 26.250 C 43.216 26.708,43.248 26.876,43.286 26.623 C 43.325 26.369,43.324 25.994,43.284 25.789 C 43.244 25.584,43.213 25.792,43.214 26.250 M337.388 27.917 C 337.389 28.558,337.419 28.800,337.455 28.455 C 337.491 28.109,337.490 27.584,337.454 27.288 C 337.417 26.992,337.387 27.275,337.388 27.917 M338.372 28.167 C 338.372 28.488,338.406 28.619,338.448 28.458 C 338.490 28.298,338.490 28.035,338.448 27.875 C 338.406 27.715,338.372 27.846,338.372 28.167 M185.458 28.454 C 185.756 28.491,186.244 28.491,186.542 28.454 C 186.840 28.417,186.596 28.387,186.000 28.387 C 185.404 28.387,185.160 28.417,185.458 28.454 M184.250 30.373 C 182.560 32.966,180.518 35.700,179.485 36.754 C 178.597 37.660,178.500 37.828,178.500 38.463 L 178.500 39.167 179.917 39.167 L 181.333 39.167 181.333 52.676 C 181.333 67.413,181.356 67.833,182.243 69.450 C 183.387 71.535,186.110 72.441,188.344 71.479 L 189.167 71.126 189.167 68.972 L 189.167 66.818 188.623 66.920 C 187.865 67.062,187.235 66.777,186.883 66.132 C 186.602 65.617,186.583 64.775,186.583 52.417 L 186.583 39.250 187.875 39.201 L 189.167 39.153 189.167 37.000 L 189.167 34.847 187.875 34.799 L 186.583 34.750 186.538 31.792 L 186.492 28.833 185.871 28.836 C 185.272 28.838,185.214 28.894,184.250 30.373 M338.523 31.615 C 338.502 32.101,338.447 32.152,337.875 32.212 L 337.250 32.277 337.880 32.305 C 338.564 32.336,338.745 32.131,338.619 31.470 C 338.562 31.170,338.540 31.203,338.523 31.615 M43.346 31.785 C 43.334 32.126,43.241 32.157,42.042 32.209 L 40.750 32.266 42.047 32.300 C 43.369 32.334,43.670 32.190,43.446 31.630 C 43.398 31.513,43.354 31.582,43.346 31.785 M70.109 32.208 C 70.152 32.277,72.315 32.333,74.917 32.333 C 77.518 32.333,79.682 32.277,79.724 32.208 C 79.767 32.140,77.603 32.083,74.917 32.083 C 72.230 32.083,70.067 32.140,70.109 32.208 M90.977 32.210 C 91.047 32.280,93.987 32.318,97.510 32.294 L 103.917 32.250 97.383 32.167 C 93.790 32.121,90.907 32.140,90.977 32.210 M197.809 32.209 C 197.878 32.278,206.556 32.316,217.092 32.292 L 236.250 32.250 216.967 32.167 C 206.361 32.121,197.740 32.140,197.809 32.209 M16.303 32.292 C 18.257 32.318,21.407 32.318,23.303 32.291 C 25.199 32.265,23.600 32.243,19.750 32.243 C 15.900 32.243,14.349 32.265,16.303 32.292 M55.042 32.291 C 55.752 32.322,56.915 32.322,57.625 32.291 C 58.335 32.259,57.754 32.234,56.333 32.234 C 54.913 32.234,54.331 32.259,55.042 32.291 M163.221 32.292 C 166.780 32.317,172.555 32.317,176.054 32.292 C 179.553 32.266,176.642 32.246,169.583 32.246 C 162.525 32.246,159.662 32.267,163.221 32.292 M188.208 32.290 C 188.827 32.322,189.840 32.322,190.458 32.290 C 191.077 32.258,190.571 32.232,189.333 32.232 C 188.096 32.232,187.590 32.258,188.208 32.290 M253.042 32.292 C 255.952 32.317,260.715 32.317,263.625 32.292 C 266.535 32.266,264.154 32.245,258.333 32.245 C 252.512 32.245,250.131 32.266,253.042 32.292 M349.886 32.291 C 351.611 32.319,354.386 32.319,356.053 32.291 C 357.719 32.264,356.308 32.242,352.917 32.242 C 349.525 32.242,348.161 32.264,349.886 32.291 M214.666 34.715 C 211.817 35.521,209.720 39.099,208.827 44.680 C 208.488 46.801,208.420 57.355,208.728 60.002 C 209.765 68.903,213.834 73.080,220.103 71.677 L 221.000 71.476 221.000 68.821 C 221.000 67.361,220.972 66.167,220.938 66.167 C 220.903 66.167,220.556 66.279,220.167 66.417 C 216.698 67.640,214.448 65.121,213.839 59.333 C 213.625 57.298,213.626 56.833,213.845 56.833 C 214.915 56.833,217.911 54.922,219.119 53.468 C 224.748 46.697,221.447 32.798,214.666 34.715 M215.926 40.418 C 217.859 43.716,216.327 51.667,213.758 51.667 C 213.332 51.667,213.777 43.003,214.279 41.523 C 214.904 39.681,215.328 39.397,215.926 40.418 M129.246 76.500 C 129.246 83.421,129.266 86.252,129.292 82.792 C 129.317 79.331,129.317 73.669,129.292 70.208 C 129.266 66.748,129.246 69.579,129.246 76.500 M140.413 76.500 C 140.413 83.421,140.433 86.252,140.458 82.792 C 140.483 79.331,140.483 73.669,140.458 70.208 C 140.433 66.748,140.413 69.579,140.413 76.500 M206.038 67.871 L 206.000 71.826 202.958 71.875 L 199.917 71.925 202.964 71.962 C 205.303 71.991,206.029 71.951,206.092 71.788 C 206.137 71.671,206.151 69.853,206.125 67.746 L 206.077 63.917 206.038 67.871 M280.079 76.500 C 280.079 83.421,280.100 86.252,280.125 82.792 C 280.150 79.331,280.150 73.669,280.125 70.208 C 280.100 66.748,280.079 69.579,280.079 76.500 M302.413 76.500 C 302.413 83.421,302.433 86.252,302.458 82.792 C 302.483 79.331,302.483 73.669,302.458 70.208 C 302.433 66.748,302.413 69.579,302.413 76.500 M370.246 76.500 C 370.246 83.421,370.266 86.252,370.292 82.792 C 370.317 79.331,370.317 73.669,370.292 70.208 C 370.266 66.748,370.246 69.579,370.246 76.500 M313.576 71.000 C 313.576 74.804,313.598 76.360,313.625 74.458 C 313.652 72.556,313.652 69.444,313.625 67.542 C 313.598 65.640,313.576 67.196,313.576 71.000 M359.079 76.583 C 359.079 83.458,359.100 86.295,359.125 82.887 C 359.150 79.480,359.150 73.855,359.125 70.387 C 359.100 66.920,359.079 69.708,359.079 76.583 M221.333 68.617 C 221.287 70.377,221.308 71.759,221.379 71.688 C 221.450 71.617,221.487 70.177,221.462 68.488 L 221.416 65.417 221.333 68.617 M218.042 66.286 C 218.294 66.324,218.706 66.324,218.958 66.286 C 219.210 66.248,219.004 66.217,218.500 66.217 C 217.996 66.217,217.790 66.248,218.042 66.286 M37.224 68.750 C 37.224 69.483,37.254 69.763,37.289 69.371 C 37.324 68.979,37.324 68.379,37.288 68.037 C 37.252 67.696,37.223 68.017,37.224 68.750 M101.383 69.667 C 101.383 70.171,101.415 70.377,101.453 70.125 C 101.491 69.873,101.491 69.460,101.453 69.208 C 101.415 68.956,101.383 69.162,101.383 69.667 M125.560 71.333 C 125.560 72.204,125.588 72.560,125.623 72.125 C 125.657 71.690,125.657 70.977,125.623 70.542 C 125.588 70.106,125.560 70.462,125.560 71.333 M193.125 71.958 C 193.973 71.988,195.360 71.988,196.208 71.958 C 197.056 71.927,196.362 71.903,194.667 71.903 C 192.971 71.903,192.277 71.927,193.125 71.958 M218.542 72.282 C 218.702 72.323,218.965 72.323,219.125 72.282 C 219.285 72.240,219.154 72.205,218.833 72.205 C 218.512 72.205,218.381 72.240,218.542 72.282 M101.379 73.000 C 101.379 73.412,101.411 73.581,101.451 73.375 C 101.491 73.169,101.491 72.831,101.451 72.625 C 101.411 72.419,101.379 72.587,101.379 73.000 M37.381 75.083 C 37.382 75.542,37.415 75.709,37.453 75.456 C 37.491 75.203,37.490 74.828,37.451 74.623 C 37.411 74.418,37.380 74.625,37.381 75.083 M321.241 83.500 C 321.241 86.571,321.264 87.827,321.291 86.292 C 321.319 84.756,321.319 82.244,321.291 80.708 C 321.264 79.173,321.241 80.429,321.241 83.500 M340.879 79.333 C 340.879 79.746,340.911 79.915,340.951 79.708 C 340.991 79.502,340.991 79.165,340.951 78.958 C 340.911 78.752,340.879 78.921,340.879 79.333 M37.550 80.500 C 37.550 81.004,37.581 81.210,37.619 80.958 C 37.658 80.706,37.658 80.294,37.619 80.042 C 37.581 79.790,37.550 79.996,37.550 80.500 M341.042 83.750 C 341.044 84.117,341.078 84.247,341.118 84.040 C 341.158 83.832,341.156 83.532,341.115 83.373 C 341.073 83.214,341.040 83.383,341.042 83.750 M299.205 86.667 C 299.205 86.987,299.240 87.119,299.282 86.958 C 299.323 86.798,299.323 86.535,299.282 86.375 C 299.240 86.215,299.205 86.346,299.205 86.667 M37.717 87.333 C 37.717 87.837,37.748 88.044,37.786 87.792 C 37.824 87.540,37.824 87.127,37.786 86.875 C 37.748 86.623,37.717 86.829,37.717 87.333 M287.887 87.833 C 287.887 88.429,287.917 88.673,287.954 88.375 C 287.991 88.077,287.991 87.590,287.954 87.292 C 287.917 86.994,287.887 87.237,287.887 87.833 M341.205 87.333 C 341.205 87.654,341.240 87.785,341.282 87.625 C 341.323 87.465,341.323 87.202,341.282 87.042 C 341.240 86.881,341.205 87.013,341.205 87.333 M334.039 88.333 C 334.039 88.654,334.073 88.785,334.115 88.625 C 334.157 88.465,334.157 88.202,334.115 88.042 C 334.073 87.881,334.039 88.013,334.039 88.333 M85.958 89.621 C 86.256 89.658,86.744 89.658,87.042 89.621 C 87.340 89.584,87.096 89.553,86.500 89.553 C 85.904 89.553,85.660 89.584,85.958 89.621 M110.125 89.621 C 110.423 89.658,110.910 89.658,111.208 89.621 C 111.506 89.584,111.263 89.553,110.667 89.553 C 110.071 89.553,109.827 89.584,110.125 89.621 M255.632 89.624 C 256.208 89.656,257.108 89.656,257.632 89.623 C 258.155 89.590,257.683 89.563,256.583 89.564 C 255.483 89.564,255.055 89.591,255.632 89.624 " stroke="none" fill="#046cbc" fill-rule="evenodd"></path><path id="path1" d="M13.167 48.083 L 13.167 63.167 19.917 63.167 L 26.667 63.167 26.667 48.083 L 26.667 33.000 19.917 33.000 L 13.167 33.000 13.167 48.083 M41.000 33.221 C 41.000 33.342,41.112 34.111,41.249 34.929 C 41.385 35.747,41.761 38.067,42.085 40.083 C 43.419 48.416,43.720 50.153,43.816 50.094 C 43.922 50.029,43.527 33.568,43.411 33.208 C 43.313 32.906,41.000 32.918,41.000 33.221 M53.833 48.083 L 53.833 63.167 56.333 63.167 L 58.833 63.167 58.833 48.083 L 58.833 33.000 56.333 33.000 L 53.833 33.000 53.833 48.083 M70.076 33.210 C 70.031 33.325,70.015 35.856,70.039 38.835 L 70.083 44.250 73.875 44.295 L 77.667 44.340 77.667 49.836 L 77.667 55.333 73.830 55.333 L 69.994 55.333 70.039 59.208 L 70.083 63.083 79.625 63.126 C 88.204 63.165,89.167 63.143,89.167 62.908 C 89.167 62.410,87.620 57.896,85.628 52.583 C 82.394 43.954,81.041 39.596,80.249 35.250 C 80.099 34.425,79.943 33.581,79.902 33.375 L 79.827 33.000 74.992 33.000 C 71.260 33.000,70.138 33.048,70.076 33.210 M91.167 33.181 C 91.167 34.202,92.918 39.669,94.952 45.000 C 97.251 51.025,99.142 56.737,100.014 60.292 L 100.720 63.167 107.027 63.167 C 112.413 63.167,113.333 63.132,113.333 62.926 C 113.333 62.489,111.728 57.826,109.830 52.750 C 106.378 43.518,105.051 39.210,104.246 34.625 L 103.961 33.000 97.564 33.000 C 93.082 33.000,91.167 33.054,91.167 33.181 M115.333 33.293 C 115.333 34.173,117.074 39.777,118.452 43.333 C 121.968 52.410,123.412 56.868,124.755 62.792 C 124.837 63.157,124.896 63.167,127.003 63.167 L 129.167 63.167 129.167 48.083 L 129.167 33.000 122.250 33.000 C 115.759 33.000,115.333 33.018,115.333 33.293 M140.500 48.083 L 140.500 63.167 143.000 63.167 L 145.500 63.167 145.500 48.083 L 145.500 33.000 143.000 33.000 L 140.500 33.000 140.500 48.083 M156.706 38.625 L 156.750 44.250 160.542 44.295 L 164.333 44.340 164.333 49.836 L 164.333 55.333 160.500 55.333 L 156.667 55.333 156.667 59.250 L 156.667 63.167 168.833 63.167 L 181.000 63.167 181.000 51.423 L 181.000 39.680 179.542 39.631 L 178.083 39.583 178.033 38.702 C 177.983 37.830,177.993 37.808,179.007 36.702 C 180.017 35.600,181.833 33.283,181.833 33.096 C 181.833 33.043,176.170 33.000,169.248 33.000 L 156.662 33.000 156.706 38.625 M187.000 33.750 L 187.000 34.500 188.333 34.500 L 189.667 34.500 189.667 37.083 L 189.667 39.667 188.333 39.667 L 187.000 39.667 187.000 51.417 L 187.000 63.167 189.333 63.167 L 191.667 63.167 191.667 48.083 L 191.667 33.000 189.333 33.000 L 187.000 33.000 187.000 33.750 M197.778 33.111 C 197.614 33.275,197.642 35.667,197.808 35.667 C 197.885 35.667,198.091 35.506,198.266 35.310 C 200.034 33.322,203.804 33.973,205.075 36.485 C 205.922 38.158,205.900 37.824,205.995 50.833 L 206.083 63.083 207.397 63.132 L 208.712 63.181 208.589 62.299 C 208.522 61.814,208.399 60.929,208.316 60.333 C 207.614 55.312,208.087 44.860,209.187 41.083 C 211.729 32.350,219.237 31.657,221.772 39.921 C 222.364 41.851,222.462 46.935,221.943 48.833 C 220.916 52.590,218.337 55.622,215.125 56.847 L 214.167 57.213 214.167 58.065 C 214.168 58.992,214.516 61.330,214.821 62.458 L 215.013 63.167 225.340 63.167 C 232.398 63.167,235.667 63.112,235.667 62.993 C 235.667 62.897,235.557 61.791,235.423 60.534 C 234.507 51.950,234.867 37.520,236.104 33.292 C 236.192 32.992,198.077 32.812,197.778 33.111 M247.497 33.208 C 247.495 33.323,247.422 33.904,247.335 34.500 C 246.374 41.054,246.358 55.937,247.306 62.333 L 247.417 63.083 250.208 63.129 L 253.000 63.175 253.000 61.337 L 253.000 59.500 250.917 59.500 L 248.833 59.500 248.833 54.000 L 248.833 48.500 256.500 48.500 L 264.167 48.500 264.167 55.833 L 264.167 63.167 266.500 63.167 L 268.833 63.167 268.833 48.083 L 268.833 33.000 258.167 33.000 C 249.746 33.000,247.499 33.044,247.497 33.208 M280.167 37.917 C 280.167 40.621,280.211 42.833,280.264 42.833 C 281.947 42.833,284.564 37.972,285.086 33.875 L 285.198 33.000 282.682 33.000 L 280.167 33.000 280.167 37.917 M296.414 33.958 C 295.818 39.170,293.362 44.342,290.249 46.945 C 289.331 47.712,289.330 47.679,290.255 48.708 C 292.893 51.641,294.858 55.968,296.500 62.458 L 296.680 63.167 299.506 63.167 L 302.333 63.167 302.333 48.083 L 302.333 33.000 299.429 33.000 L 296.524 33.000 296.414 33.958 M313.667 38.667 L 313.667 44.333 317.502 44.333 L 321.338 44.333 321.294 49.792 L 321.250 55.250 317.458 55.295 L 313.667 55.340 313.667 59.255 L 313.667 63.171 319.708 63.127 L 325.750 63.083 326.371 57.500 C 326.713 54.429,327.467 47.696,328.048 42.538 C 328.629 37.380,329.068 33.124,329.024 33.080 C 328.980 33.036,325.507 33.000,321.306 33.000 L 313.667 33.000 313.667 38.667 M337.270 35.292 C 337.029 40.973,335.930 60.400,335.747 62.208 L 335.650 63.167 337.827 63.167 L 340.003 63.167 339.923 62.292 C 339.879 61.810,339.801 60.367,339.751 59.083 C 339.701 57.800,339.587 55.212,339.499 53.333 C 339.075 44.321,338.667 34.821,338.667 33.958 L 338.667 33.000 338.017 33.000 L 337.367 33.000 337.270 35.292 M346.833 33.496 C 346.833 33.769,346.984 35.363,347.168 37.038 C 347.351 38.713,347.728 42.258,348.005 44.917 C 348.282 47.575,348.580 50.425,348.666 51.250 C 348.753 52.075,348.977 54.212,349.164 56.000 C 349.351 57.788,349.594 60.131,349.703 61.208 L 349.901 63.167 354.450 63.167 L 359.000 63.167 359.000 48.083 L 359.000 33.000 352.917 33.000 L 346.833 33.000 346.833 33.496 M370.333 48.083 L 370.333 63.167 378.667 63.167 L 387.000 63.167 387.000 48.083 L 387.000 33.000 378.667 33.000 L 370.333 33.000 370.333 48.083 M198.115 40.634 L 197.667 41.102 197.667 52.134 L 197.667 63.167 198.833 63.167 L 200.000 63.167 200.000 52.156 C 200.000 41.126,199.978 40.658,199.433 40.294 C 199.063 40.047,198.551 40.179,198.115 40.634 M215.107 40.691 C 214.421 41.738,214.167 43.540,214.167 47.364 L 214.167 51.008 214.558 50.751 C 216.306 49.606,216.984 43.314,215.635 40.764 L 215.378 40.277 215.107 40.691 M36.679 45.917 C 36.646 47.274,37.015 61.775,37.100 62.458 L 37.187 63.167 38.427 63.167 C 39.109 63.167,39.665 63.110,39.664 63.042 C 39.647 62.381,36.690 45.419,36.679 45.917 M280.174 58.625 L 280.167 63.167 282.500 63.167 C 283.783 63.167,284.833 63.133,284.833 63.093 C 284.833 61.736,282.218 56.357,280.778 54.750 L 280.181 54.083 280.174 58.625 " stroke="none" fill="#fbbb23" fill-rule="evenodd"></path><path id="path2" d="M91.227 8.079 C 82.941 9.583,78.905 17.576,79.653 31.000 L 79.723 32.250 74.903 32.250 L 70.083 32.250 70.040 25.792 L 69.996 19.333 73.831 19.333 L 77.667 19.333 77.667 13.917 L 77.667 8.500 68.250 8.500 L 58.833 8.500 58.833 20.417 L 58.833 32.333 56.333 32.333 L 53.833 32.333 53.833 20.417 L 53.833 8.500 48.292 8.500 L 42.750 8.500 42.860 12.125 C 42.920 14.119,43.052 18.825,43.153 22.583 C 43.254 26.342,43.354 30.054,43.377 30.833 L 43.417 32.250 42.130 32.299 C 40.636 32.355,40.855 32.698,40.343 29.500 C 40.160 28.354,39.743 25.767,39.416 23.750 C 39.090 21.733,38.636 18.921,38.408 17.500 C 38.180 16.079,37.756 13.473,37.467 11.708 L 36.941 8.500 31.804 8.500 L 26.667 8.500 26.667 20.417 L 26.667 32.333 19.646 32.333 C 13.719 32.333,12.655 32.369,12.815 32.562 C 12.955 32.730,12.993 36.920,12.961 48.395 L 12.917 64.000 19.792 64.000 L 26.667 64.000 26.667 76.500 L 26.667 89.000 32.221 89.000 L 37.776 89.000 37.717 86.792 C 37.685 85.577,37.547 80.758,37.412 76.083 C 37.276 71.408,37.166 66.777,37.166 65.792 L 37.167 64.000 38.497 64.000 C 39.740 64.000,39.833 64.025,39.913 64.375 C 39.960 64.581,40.862 70.000,41.918 76.417 C 42.974 82.833,43.880 88.290,43.932 88.542 L 44.026 89.000 48.930 89.000 L 53.833 89.000 53.833 76.500 L 53.833 64.000 56.333 64.000 L 58.833 64.000 58.833 76.500 L 58.833 89.000 68.250 89.000 L 77.667 89.000 77.667 83.500 L 77.667 78.000 73.833 78.000 L 70.000 78.000 70.000 70.999 L 70.000 63.997 79.789 64.040 L 89.577 64.083 89.973 65.917 C 91.980 75.229,87.763 80.184,80.375 77.192 L 79.500 76.838 79.500 82.566 L 79.500 88.293 79.958 88.468 C 82.691 89.509,87.067 89.821,89.785 89.170 C 98.910 86.982,102.942 78.079,100.899 64.625 L 100.804 64.000 107.229 64.000 L 113.654 64.000 113.818 64.625 C 116.447 74.643,112.286 80.354,104.625 77.246 L 103.667 76.857 103.667 82.568 L 103.667 88.280 104.111 88.482 C 105.272 89.011,107.329 89.363,109.785 89.452 C 120.924 89.857,127.156 80.506,125.248 66.250 C 125.113 65.242,125.002 64.323,125.001 64.208 C 125.000 64.052,125.544 64.000,127.167 64.000 L 129.333 64.000 129.333 76.500 L 129.333 89.000 134.833 89.000 L 140.333 89.000 140.333 76.500 L 140.333 64.000 142.917 64.000 L 145.500 64.000 145.500 76.500 L 145.500 89.000 154.917 89.000 L 164.333 89.000 164.333 83.500 L 164.333 78.000 160.500 78.000 L 156.667 78.000 156.667 71.000 L 156.667 64.000 168.833 64.000 L 181.000 64.000 181.002 65.542 C 181.009 70.814,185.283 74.019,189.042 71.569 L 189.667 71.162 189.667 68.664 C 189.667 67.291,189.638 66.167,189.604 66.167 C 189.569 66.167,189.259 66.284,188.915 66.428 C 187.753 66.914,187.000 66.251,187.000 64.742 L 187.000 64.000 189.333 64.000 L 191.667 64.000 191.667 67.917 L 191.667 71.833 194.667 71.833 L 197.667 71.833 197.667 67.917 L 197.667 64.000 198.833 64.000 L 200.000 64.000 200.000 67.917 L 200.000 71.833 203.000 71.833 L 206.000 71.833 206.000 67.917 L 206.000 64.000 207.505 64.000 C 208.566 64.000,209.028 64.061,209.071 64.208 C 210.764 70.075,214.055 72.720,219.000 72.190 C 219.779 72.106,220.623 71.956,220.875 71.856 L 221.333 71.675 221.333 68.597 L 221.333 65.519 220.571 65.856 C 218.431 66.802,216.516 66.232,215.507 64.347 L 215.320 63.997 225.606 64.040 L 235.891 64.083 236.186 65.811 C 238.390 78.696,244.092 87.039,252.105 89.099 C 253.957 89.575,260.869 89.621,263.125 89.172 L 264.167 88.964 264.167 76.482 L 264.167 64.000 266.499 64.000 L 268.831 64.000 268.874 76.458 L 268.917 88.917 274.458 88.961 L 280.000 89.004 280.000 76.502 L 280.000 64.000 282.569 64.000 L 285.139 64.000 285.496 65.519 C 286.773 70.962,287.488 77.186,287.928 86.708 L 288.034 89.000 293.684 89.000 C 298.953 89.000,299.333 88.980,299.333 88.708 C 299.330 83.664,298.148 71.255,297.156 65.858 C 296.978 64.892,296.833 64.079,296.833 64.051 C 296.833 64.023,298.108 64.000,299.667 64.000 L 302.500 64.000 302.500 76.500 L 302.500 89.000 311.833 89.000 L 321.167 89.000 321.167 83.503 L 321.167 78.006 317.375 77.961 L 313.583 77.917 313.583 71.000 L 313.583 64.083 319.625 64.040 C 322.948 64.016,325.667 64.016,325.666 64.040 C 325.666 64.064,325.295 67.383,324.841 71.417 C 324.387 75.450,323.788 80.813,323.510 83.333 C 323.232 85.854,322.971 88.160,322.929 88.458 L 322.854 89.000 328.408 89.000 L 333.961 89.000 334.064 87.958 C 334.121 87.385,334.317 84.742,334.499 82.083 C 334.681 79.425,334.876 76.669,334.932 75.958 L 335.035 74.667 337.840 74.667 L 340.646 74.667 340.738 75.375 C 340.789 75.765,340.907 78.183,341.000 80.750 C 341.093 83.317,341.217 86.223,341.275 87.208 L 341.381 89.000 346.962 89.000 L 352.543 89.000 352.431 87.625 C 352.369 86.869,352.250 85.650,352.166 84.917 C 351.993 83.399,351.835 81.902,351.251 76.250 C 350.827 72.148,350.600 69.985,350.332 67.500 C 350.248 66.721,350.131 65.613,350.073 65.039 L 349.967 63.995 354.525 64.039 L 359.083 64.083 359.126 76.542 L 359.169 89.000 364.668 89.000 L 370.167 89.000 370.167 76.500 L 370.167 64.000 378.684 64.000 C 386.383 64.000,387.193 63.975,387.101 63.736 C 387.046 63.591,387.000 63.404,387.000 63.320 C 387.000 63.229,383.616 63.167,378.667 63.167 L 370.333 63.167 370.333 48.083 L 370.333 33.000 378.627 33.000 C 386.727 33.000,386.925 32.992,387.127 32.668 C 387.333 32.339,387.274 32.336,378.792 32.293 L 370.250 32.250 370.250 25.833 L 370.250 19.417 374.042 19.372 L 377.833 19.327 377.833 13.914 L 377.833 8.500 364.667 8.500 L 351.500 8.500 351.500 13.917 L 351.500 19.333 355.232 19.333 C 358.482 19.333,358.977 19.367,359.066 19.597 C 359.218 19.994,359.182 31.884,359.028 32.127 C 358.924 32.292,357.571 32.328,352.833 32.294 L 346.771 32.250 346.647 31.750 C 346.579 31.475,346.445 30.462,346.350 29.500 C 346.254 28.537,346.060 26.662,345.917 25.333 C 345.399 20.489,344.729 14.067,344.406 10.833 C 344.264 9.412,344.117 8.156,344.079 8.042 C 344.026 7.880,342.663 7.833,338.013 7.833 L 332.015 7.833 331.929 8.375 C 331.881 8.673,331.724 10.004,331.580 11.333 C 330.743 19.049,329.317 31.638,329.245 31.960 L 329.159 32.337 321.371 32.293 L 313.583 32.250 313.583 25.833 L 313.583 19.417 317.375 19.372 L 321.167 19.327 321.167 13.914 L 321.167 8.500 311.834 8.500 L 302.502 8.500 302.459 20.375 L 302.417 32.250 299.500 32.250 L 296.583 32.250 296.484 29.333 C 296.127 18.811,290.775 11.559,281.516 9.052 C 279.979 8.635,279.699 8.616,274.375 8.544 L 268.833 8.470 268.833 20.403 L 268.833 32.336 258.292 32.293 L 247.750 32.250 247.783 31.660 C 247.868 30.120,249.228 25.527,250.125 23.750 C 253.113 17.833,257.670 17.128,262.377 21.854 L 264.171 23.655 264.127 17.203 L 264.083 10.750 261.984 9.708 C 250.495 4.006,240.851 11.716,236.811 29.833 C 236.535 31.071,236.254 32.140,236.187 32.209 C 236.120 32.278,227.444 32.316,216.908 32.292 L 197.750 32.250 197.706 27.875 L 197.661 23.500 194.667 23.500 L 191.672 23.500 191.628 27.875 L 191.583 32.250 189.333 32.250 L 187.083 32.250 187.036 30.375 L 186.989 28.500 186.020 28.500 L 185.051 28.500 183.827 30.292 C 183.154 31.277,182.523 32.139,182.426 32.206 C 182.329 32.274,176.512 32.312,169.500 32.290 L 156.750 32.250 156.706 25.792 L 156.663 19.333 160.498 19.333 L 164.333 19.333 164.333 13.917 L 164.333 8.500 154.918 8.500 L 145.502 8.500 145.459 20.375 L 145.417 32.250 142.917 32.250 L 140.417 32.250 140.374 20.375 L 140.331 8.500 134.833 8.500 L 129.336 8.500 129.293 20.375 L 129.250 32.250 122.167 32.250 L 115.083 32.250 114.866 31.000 C 113.411 22.631,117.781 16.948,123.833 19.338 C 124.521 19.610,125.140 19.832,125.208 19.833 C 125.277 19.833,125.333 17.406,125.333 14.439 L 125.333 9.044 124.292 8.747 C 111.290 5.042,103.754 12.123,103.754 28.044 L 103.755 32.337 97.336 32.294 L 90.917 32.250 90.702 30.833 C 89.420 22.377,93.645 16.960,99.667 19.338 C 100.354 19.610,100.973 19.832,101.042 19.833 C 101.110 19.833,101.167 17.407,101.167 14.441 L 101.167 9.049 99.891 8.670 C 97.183 7.866,93.708 7.629,91.227 8.079 M97.934 8.593 C 98.585 8.727,99.503 8.951,99.975 9.091 L 100.833 9.346 100.833 14.358 C 100.833 19.064,100.816 19.362,100.542 19.251 C 95.848 17.347,92.264 18.826,90.754 23.289 C 89.224 27.812,90.179 33.601,94.200 44.167 C 98.277 54.881,100.063 60.975,100.744 66.495 C 102.595 81.505,95.470 90.725,83.417 88.914 C 81.622 88.645,80.158 88.229,79.961 87.934 C 79.799 87.691,79.797 77.500,79.958 77.500 C 80.027 77.500,80.462 77.644,80.924 77.820 C 84.634 79.230,88.500 78.107,89.990 75.187 C 91.944 71.355,90.917 65.406,86.084 52.583 C 80.883 38.782,79.636 33.206,80.020 25.474 C 80.653 12.751,87.376 6.415,97.934 8.593 M122.100 8.594 C 122.751 8.728,123.670 8.951,124.142 9.091 L 125.000 9.346 125.000 14.358 C 125.000 19.064,124.982 19.362,124.708 19.251 C 118.508 16.736,114.266 20.191,114.273 27.750 C 114.277 32.181,115.335 36.356,118.665 45.083 C 125.022 61.747,126.506 70.639,124.241 78.490 C 121.803 86.939,113.612 91.136,104.965 88.366 L 104.083 88.083 104.039 82.792 C 104.015 79.881,104.022 77.500,104.055 77.500 C 104.088 77.500,104.533 77.644,105.045 77.820 C 110.081 79.553,114.117 77.468,114.859 72.750 C 115.530 68.485,114.403 63.673,109.998 52.000 C 104.227 36.705,103.017 29.386,104.776 20.423 C 106.576 11.253,113.152 6.763,122.100 8.594 M258.287 8.670 C 259.005 8.850,260.514 9.461,261.667 10.039 L 263.750 11.083 263.794 16.897 L 263.838 22.711 262.681 21.526 C 258.113 16.849,253.013 17.446,250.094 23.002 C 247.333 28.257,246.249 35.404,246.252 48.333 C 246.256 64.361,247.987 72.944,252.143 77.544 C 253.434 78.973,253.333 79.714,253.333 68.756 L 253.333 59.000 251.333 59.000 L 249.333 59.000 249.333 53.915 L 249.333 48.830 256.542 48.873 L 263.750 48.917 263.792 68.774 L 263.835 88.631 262.792 88.826 C 260.868 89.185,254.794 89.248,253.083 88.925 C 244.301 87.269,238.249 78.066,236.183 63.226 C 234.802 53.309,235.107 40.243,236.929 31.167 C 240.242 14.668,248.311 6.168,258.287 8.670 M343.727 8.458 C 343.772 8.619,343.852 9.200,343.905 9.750 C 344.025 11.000,344.771 18.210,345.000 20.333 C 345.188 22.075,346.176 31.472,346.585 35.417 C 346.728 36.792,347.889 47.892,349.166 60.083 C 350.443 72.275,351.602 83.375,351.741 84.750 C 351.880 86.125,352.033 87.531,352.082 87.875 L 352.171 88.500 346.919 88.500 L 341.667 88.500 341.665 87.625 C 341.664 87.144,341.594 85.362,341.510 83.667 C 341.425 81.971,341.304 79.177,341.241 77.458 L 341.126 74.333 337.908 74.333 L 334.691 74.333 334.599 75.208 C 334.518 75.988,333.661 88.064,333.665 88.375 C 333.666 88.444,331.342 88.500,328.500 88.500 C 325.658 88.500,323.333 88.474,323.333 88.443 C 323.333 88.412,323.479 87.080,323.658 85.485 C 324.646 76.645,325.623 67.937,326.666 58.667 C 327.310 52.938,328.098 45.925,328.416 43.083 C 328.734 40.242,329.517 33.267,330.156 27.583 C 330.795 21.900,331.508 15.525,331.740 13.417 C 331.973 11.308,332.206 9.265,332.258 8.875 L 332.354 8.167 337.999 8.167 C 343.233 8.167,343.650 8.188,343.727 8.458 M36.744 9.625 C 36.807 10.060,37.225 12.667,37.672 15.417 C 38.120 18.167,38.715 21.842,38.995 23.583 C 39.275 25.325,39.958 29.563,40.513 33.000 C 41.068 36.438,41.854 41.313,42.260 43.833 C 43.469 51.345,43.308 50.667,43.878 50.667 L 44.370 50.667 44.263 47.042 C 44.204 45.048,44.082 40.979,43.993 38.000 C 43.904 35.021,43.721 28.646,43.586 23.833 C 43.452 19.021,43.294 13.677,43.235 11.958 L 43.128 8.833 48.231 8.833 L 53.333 8.833 53.333 48.667 L 53.333 88.500 48.837 88.500 L 44.340 88.500 44.255 88.125 C 44.208 87.919,43.572 84.112,42.841 79.667 C 42.109 75.221,40.496 65.446,39.256 57.946 C 38.015 50.445,37.000 44.276,37.000 44.237 C 37.000 44.198,36.803 44.167,36.562 44.167 L 36.124 44.167 36.234 47.125 C 36.294 48.752,36.415 52.858,36.503 56.250 C 36.780 66.970,37.001 75.076,37.168 80.667 C 37.257 83.646,37.330 86.627,37.331 87.292 L 37.333 88.500 32.250 88.500 L 27.167 88.500 27.167 48.667 L 27.167 8.833 31.898 8.833 L 36.629 8.833 36.744 9.625 M77.333 13.917 L 77.333 19.000 73.500 19.000 L 69.667 19.000 69.667 31.833 L 69.667 44.667 73.500 44.667 L 77.333 44.667 77.333 49.750 L 77.333 54.833 73.500 54.833 L 69.667 54.833 69.667 66.667 L 69.667 78.500 73.500 78.500 L 77.333 78.500 77.333 83.500 L 77.333 88.500 68.333 88.500 L 59.333 88.500 59.333 48.667 L 59.333 8.833 68.333 8.833 L 77.333 8.833 77.333 13.917 M140.000 48.667 L 140.000 88.500 134.833 88.500 L 129.667 88.500 129.667 48.667 L 129.667 8.833 134.833 8.833 L 140.000 8.833 140.000 48.667 M163.833 13.917 L 163.833 19.000 160.083 19.000 L 156.333 19.000 156.333 31.833 L 156.333 44.667 160.083 44.667 L 163.833 44.667 163.833 49.750 L 163.833 54.833 160.083 54.833 L 156.333 54.833 156.333 66.667 L 156.333 78.500 160.083 78.500 L 163.833 78.500 163.833 83.500 L 163.833 88.500 154.833 88.500 L 145.833 88.500 145.833 48.667 L 145.833 8.833 154.833 8.833 L 163.833 8.833 163.833 13.917 M279.000 9.005 C 290.447 10.486,297.361 20.453,296.013 33.530 C 295.466 38.829,293.760 42.713,290.547 45.971 L 288.844 47.698 289.849 48.891 C 294.635 54.566,297.087 63.107,298.327 78.417 C 298.570 81.417,298.830 86.025,298.832 87.375 L 298.833 88.500 293.608 88.500 L 288.384 88.500 288.270 85.708 C 287.712 71.934,285.708 61.676,282.552 56.441 C 281.950 55.442,280.087 53.333,279.807 53.333 C 279.730 53.333,279.667 61.246,279.667 70.917 L 279.667 88.500 274.500 88.500 L 269.333 88.500 269.333 48.667 L 269.333 8.833 273.542 8.838 C 275.856 8.841,278.313 8.916,279.000 9.005 M320.833 13.917 L 320.833 19.000 317.000 19.000 L 313.167 19.000 313.167 31.833 L 313.167 44.667 317.000 44.667 L 320.833 44.667 320.833 49.750 L 320.833 54.833 316.999 54.833 L 313.164 54.833 313.207 66.625 L 313.250 78.417 317.042 78.461 L 320.833 78.506 320.833 83.503 L 320.833 88.500 311.833 88.500 L 302.833 88.500 302.833 48.667 L 302.833 8.833 311.833 8.833 L 320.833 8.833 320.833 13.917 M377.500 13.917 L 377.500 19.000 373.667 19.000 L 369.833 19.000 369.833 53.750 L 369.833 88.500 364.667 88.500 L 359.500 88.500 359.500 53.750 L 359.500 19.000 355.667 19.000 L 351.833 19.000 351.833 13.917 L 351.833 8.833 364.667 8.833 L 377.500 8.833 377.500 13.917 M279.667 31.667 C 279.667 38.175,279.723 43.499,279.792 43.498 C 280.200 43.493,281.748 42.379,282.465 41.574 C 286.656 36.872,286.702 26.173,282.552 21.812 C 281.718 20.937,280.187 19.840,279.792 19.835 C 279.723 19.834,279.667 25.158,279.667 31.667 M281.077 20.996 C 283.513 22.672,284.943 25.930,285.122 30.213 L 285.211 32.342 282.647 32.296 L 280.083 32.250 280.040 26.375 C 280.009 22.244,280.049 20.500,280.176 20.500 C 280.275 20.500,280.681 20.723,281.077 20.996 M337.105 24.042 C 337.051 25.623,336.929 29.992,336.834 33.750 C 336.738 37.508,336.553 42.271,336.422 44.333 C 336.291 46.396,336.100 49.508,335.998 51.250 C 335.896 52.992,335.685 56.578,335.529 59.219 C 335.372 61.861,335.277 64.055,335.317 64.094 C 335.356 64.134,336.501 64.167,337.861 64.167 L 340.333 64.167 340.331 62.958 C 340.330 62.294,340.256 60.288,340.167 58.500 C 339.901 53.162,339.259 38.708,339.082 34.083 C 338.917 29.750,338.671 24.309,338.568 22.708 L 338.469 21.167 337.836 21.167 L 337.202 21.167 337.105 24.042 M338.237 23.708 C 338.294 24.923,338.409 27.302,338.491 28.995 C 338.660 32.463,338.683 32.333,337.907 32.333 L 337.333 32.333 337.333 30.944 C 337.333 25.627,337.556 21.500,337.843 21.500 C 338.098 21.500,338.145 21.762,338.237 23.708 M197.373 30.435 L 197.417 37.038 197.944 36.303 C 199.538 34.083,202.906 33.984,204.380 36.114 C 205.645 37.943,205.667 38.271,205.667 55.990 L 205.667 71.500 203.088 71.500 L 200.508 71.500 200.463 56.201 C 200.419 41.786,200.399 40.875,200.116 40.443 C 199.511 39.520,198.395 39.528,197.661 40.462 C 197.341 40.869,197.333 41.219,197.333 56.193 L 197.333 71.508 194.708 71.463 L 192.083 71.417 192.040 47.833 C 192.017 34.862,192.033 24.156,192.077 24.042 C 192.136 23.887,192.827 23.833,194.743 23.833 L 197.330 23.833 197.373 30.435 M186.538 31.792 L 186.583 34.750 187.875 34.799 L 189.167 34.847 189.167 37.000 L 189.167 39.153 187.875 39.201 L 186.583 39.250 186.583 52.417 C 186.583 64.775,186.602 65.617,186.883 66.132 C 187.235 66.777,187.865 67.062,188.623 66.920 L 189.167 66.818 189.167 68.972 L 189.167 71.126 188.344 71.479 C 186.110 72.441,183.387 71.535,182.243 69.450 C 181.356 67.833,181.333 67.413,181.333 52.676 L 181.333 39.167 179.917 39.167 L 178.500 39.167 178.500 38.463 C 178.500 37.828,178.597 37.660,179.485 36.754 C 180.518 35.700,182.560 32.966,184.250 30.373 C 185.214 28.894,185.272 28.838,185.871 28.836 L 186.492 28.833 186.538 31.792 M26.667 48.083 L 26.667 63.167 19.917 63.167 L 13.167 63.167 13.167 48.083 L 13.167 33.000 19.917 33.000 L 26.667 33.000 26.667 48.083 M43.411 33.208 C 43.527 33.568,43.922 50.029,43.816 50.094 C 43.720 50.153,43.419 48.416,42.085 40.083 C 41.761 38.067,41.385 35.747,41.249 34.929 C 41.112 34.111,41.000 33.342,41.000 33.221 C 41.000 32.918,43.313 32.906,43.411 33.208 M58.833 48.083 L 58.833 63.167 56.333 63.167 L 53.833 63.167 53.833 48.083 L 53.833 33.000 56.333 33.000 L 58.833 33.000 58.833 48.083 M79.902 33.375 C 79.943 33.581,80.099 34.425,80.249 35.250 C 81.041 39.596,82.394 43.954,85.628 52.583 C 87.620 57.896,89.167 62.410,89.167 62.908 C 89.167 63.143,88.204 63.165,79.625 63.126 L 70.083 63.083 70.039 59.208 L 69.994 55.333 73.830 55.333 L 77.667 55.333 77.667 49.836 L 77.667 44.340 73.875 44.295 L 70.083 44.250 70.039 38.835 C 70.015 35.856,70.031 33.325,70.076 33.210 C 70.138 33.048,71.260 33.000,74.992 33.000 L 79.827 33.000 79.902 33.375 M104.246 34.625 C 105.051 39.210,106.378 43.518,109.830 52.750 C 111.728 57.826,113.333 62.489,113.333 62.926 C 113.333 63.132,112.413 63.167,107.027 63.167 L 100.720 63.167 100.014 60.292 C 99.142 56.737,97.251 51.025,94.952 45.000 C 92.918 39.669,91.167 34.202,91.167 33.181 C 91.167 33.054,93.082 33.000,97.564 33.000 L 103.961 33.000 104.246 34.625 M129.167 48.083 L 129.167 63.167 127.003 63.167 C 124.896 63.167,124.837 63.157,124.755 62.792 C 123.412 56.868,121.968 52.410,118.452 43.333 C 117.074 39.777,115.333 34.173,115.333 33.293 C 115.333 33.018,115.759 33.000,122.250 33.000 L 129.167 33.000 129.167 48.083 M145.500 48.083 L 145.500 63.167 143.000 63.167 L 140.500 63.167 140.500 48.083 L 140.500 33.000 143.000 33.000 L 145.500 33.000 145.500 48.083 M181.833 33.096 C 181.833 33.283,180.017 35.600,179.007 36.702 C 177.993 37.808,177.983 37.830,178.033 38.702 L 178.083 39.583 179.542 39.631 L 181.000 39.680 181.000 51.423 L 181.000 63.167 168.833 63.167 L 156.667 63.167 156.667 59.250 L 156.667 55.333 160.500 55.333 L 164.333 55.333 164.333 49.836 L 164.333 44.340 160.542 44.295 L 156.750 44.250 156.706 38.625 L 156.662 33.000 169.248 33.000 C 176.170 33.000,181.833 33.043,181.833 33.096 M191.667 48.083 L 191.667 63.167 189.333 63.167 L 187.000 63.167 187.000 51.417 L 187.000 39.667 188.333 39.667 L 189.667 39.667 189.667 37.083 L 189.667 34.500 188.333 34.500 L 187.000 34.500 187.000 33.750 L 187.000 33.000 189.333 33.000 L 191.667 33.000 191.667 48.083 M236.104 33.292 C 234.867 37.520,234.507 51.950,235.423 60.534 C 235.557 61.791,235.667 62.897,235.667 62.993 C 235.667 63.112,232.398 63.167,225.340 63.167 L 215.013 63.167 214.821 62.458 C 214.516 61.330,214.168 58.992,214.167 58.065 L 214.167 57.213 215.125 56.847 C 218.337 55.622,220.916 52.590,221.943 48.833 C 222.462 46.935,222.364 41.851,221.772 39.921 C 219.237 31.657,211.729 32.350,209.187 41.083 C 208.087 44.860,207.614 55.312,208.316 60.333 C 208.399 60.929,208.522 61.814,208.589 62.299 L 208.712 63.181 207.397 63.132 L 206.083 63.083 205.995 50.833 C 205.900 37.824,205.922 38.158,205.075 36.485 C 203.804 33.973,200.034 33.322,198.266 35.310 C 198.091 35.506,197.885 35.667,197.808 35.667 C 197.642 35.667,197.614 33.275,197.778 33.111 C 198.077 32.812,236.192 32.992,236.104 33.292 M268.833 48.083 L 268.833 63.167 266.500 63.167 L 264.167 63.167 264.167 55.833 L 264.167 48.500 256.500 48.500 L 248.833 48.500 248.833 54.000 L 248.833 59.500 250.917 59.500 L 253.000 59.500 253.000 61.337 L 253.000 63.175 250.208 63.129 L 247.417 63.083 247.306 62.333 C 246.358 55.937,246.374 41.054,247.335 34.500 C 247.422 33.904,247.495 33.323,247.497 33.208 C 247.499 33.044,249.746 33.000,258.167 33.000 L 268.833 33.000 268.833 48.083 M285.086 33.875 C 284.564 37.972,281.947 42.833,280.264 42.833 C 280.211 42.833,280.167 40.621,280.167 37.917 L 280.167 33.000 282.682 33.000 L 285.198 33.000 285.086 33.875 M302.333 48.083 L 302.333 63.167 299.506 63.167 L 296.680 63.167 296.500 62.458 C 294.858 55.968,292.893 51.641,290.255 48.708 C 289.330 47.679,289.331 47.712,290.249 46.945 C 293.362 44.342,295.818 39.170,296.414 33.958 L 296.524 33.000 299.429 33.000 L 302.333 33.000 302.333 48.083 M329.024 33.080 C 329.068 33.124,328.629 37.380,328.048 42.538 C 327.467 47.696,326.713 54.429,326.371 57.500 L 325.750 63.083 319.708 63.127 L 313.667 63.171 313.667 59.255 L 313.667 55.340 317.458 55.295 L 321.250 55.250 321.294 49.792 L 321.338 44.333 317.502 44.333 L 313.667 44.333 313.667 38.667 L 313.667 33.000 321.306 33.000 C 325.507 33.000,328.980 33.036,329.024 33.080 M338.667 33.958 C 338.667 34.821,339.075 44.321,339.499 53.333 C 339.587 55.212,339.701 57.800,339.751 59.083 C 339.801 60.367,339.879 61.810,339.923 62.292 L 340.003 63.167 337.827 63.167 L 335.650 63.167 335.747 62.208 C 335.930 60.400,337.029 40.973,337.270 35.292 L 337.367 33.000 338.017 33.000 L 338.667 33.000 338.667 33.958 M359.000 48.083 L 359.000 63.167 354.450 63.167 L 349.901 63.167 349.703 61.208 C 349.594 60.131,349.351 57.788,349.164 56.000 C 348.977 54.212,348.753 52.075,348.666 51.250 C 348.580 50.425,348.282 47.575,348.005 44.917 C 347.728 42.258,347.351 38.713,347.168 37.038 C 346.984 35.363,346.833 33.769,346.833 33.496 L 346.833 33.000 352.917 33.000 L 359.000 33.000 359.000 48.083 M218.014 35.107 C 222.719 37.668,223.362 48.363,219.119 53.468 C 217.911 54.922,214.915 56.833,213.845 56.833 C 213.626 56.833,213.625 57.298,213.839 59.333 C 214.448 65.121,216.698 67.640,220.167 66.417 C 220.556 66.279,220.903 66.167,220.938 66.167 C 220.972 66.167,221.000 67.361,221.000 68.821 L 221.000 71.476 220.103 71.677 C 213.834 73.080,209.765 68.903,208.728 60.002 C 208.420 57.355,208.488 46.801,208.827 44.680 C 210.069 36.918,213.937 32.888,218.014 35.107 M214.890 40.226 C 213.968 41.651,213.667 43.630,213.667 48.262 C 213.667 50.135,213.708 51.667,213.758 51.667 C 216.327 51.667,217.859 43.716,215.926 40.418 C 215.401 39.521,215.353 39.512,214.890 40.226 M199.433 40.294 C 199.978 40.658,200.000 41.126,200.000 52.156 L 200.000 63.167 198.833 63.167 L 197.667 63.167 197.667 52.134 L 197.667 41.102 198.115 40.634 C 198.551 40.179,199.063 40.047,199.433 40.294 M216.110 42.167 C 216.815 45.132,215.966 49.829,214.558 50.751 L 214.167 51.008 214.167 47.364 C 214.167 43.540,214.421 41.738,215.107 40.691 L 215.378 40.277 215.635 40.764 C 215.777 41.031,215.990 41.662,216.110 42.167 M39.664 63.042 C 39.665 63.110,39.109 63.167,38.427 63.167 L 37.187 63.167 37.100 62.458 C 37.015 61.775,36.646 47.274,36.679 45.917 C 36.690 45.419,39.647 62.381,39.664 63.042 M281.964 56.325 C 282.903 57.774,284.833 62.327,284.833 63.093 C 284.833 63.133,283.783 63.167,282.500 63.167 L 280.167 63.167 280.174 58.625 L 280.181 54.083 280.778 54.750 C 281.107 55.117,281.641 55.825,281.964 56.325 M253.000 70.847 C 253.000 75.315,252.942 77.675,252.834 77.639 C 251.195 77.090,248.378 70.133,247.598 64.708 L 247.496 64.000 250.248 64.000 L 253.000 64.000 253.000 70.847 " stroke="none" fill="#060b0d" fill-rule="evenodd"></path><path id="path3" d="M1.242 1.242 C 0.694 1.791,0.715 2.443,1.339 4.270 C 1.618 5.084,1.984 6.200,2.154 6.750 C 2.324 7.300,3.810 11.800,5.456 16.750 C 7.102 21.700,8.713 26.575,9.037 27.583 C 10.025 30.659,10.618 31.562,12.000 32.091 C 12.249 32.186,15.289 32.231,19.542 32.203 L 26.667 32.156 26.667 20.245 L 26.667 8.333 31.833 8.333 C 34.675 8.333,37.000 8.378,37.000 8.433 C 37.000 8.488,37.337 10.607,37.748 13.141 C 38.160 15.676,38.647 18.688,38.830 19.833 C 39.789 25.820,40.683 31.302,40.766 31.708 C 40.858 32.160,40.879 32.167,42.123 32.167 L 43.387 32.167 43.277 28.292 C 43.217 26.160,43.095 21.717,43.006 18.417 C 42.917 15.117,42.799 11.498,42.743 10.375 L 42.641 8.333 48.237 8.333 L 53.833 8.333 53.833 20.250 L 53.833 32.167 56.333 32.167 L 58.833 32.167 58.833 20.250 L 58.833 8.333 68.250 8.333 L 77.667 8.333 77.667 13.830 L 77.667 19.327 73.875 19.372 L 70.083 19.417 70.083 25.750 L 70.083 32.083 74.833 32.127 L 79.583 32.172 79.597 27.794 C 79.634 16.233,83.271 9.788,90.682 8.150 C 93.503 7.527,98.313 7.888,100.748 8.905 L 101.333 9.150 101.333 14.593 C 101.333 19.713,101.316 20.028,101.042 19.912 C 93.879 16.872,89.408 21.486,90.703 30.583 L 90.917 32.083 97.337 32.127 L 103.757 32.171 103.692 28.715 C 103.473 17.120,107.023 10.286,114.333 8.224 C 116.801 7.528,122.494 7.894,124.912 8.904 L 125.500 9.150 125.500 14.482 C 125.500 17.414,125.444 19.848,125.375 19.889 C 125.306 19.931,124.688 19.732,124.000 19.447 C 119.964 17.772,116.462 19.590,115.065 24.083 C 114.718 25.200,114.634 30.128,114.940 31.417 L 115.098 32.083 122.131 32.127 L 129.164 32.170 129.207 20.293 L 129.250 8.417 134.833 8.417 L 140.417 8.417 140.459 20.292 L 140.502 32.167 143.001 32.167 L 145.500 32.167 145.500 20.250 L 145.500 8.333 154.917 8.333 L 164.333 8.333 164.333 13.830 L 164.333 19.327 160.542 19.372 L 156.750 19.417 156.706 25.792 L 156.663 32.167 169.572 32.167 L 182.481 32.167 183.782 30.253 L 185.083 28.338 186.042 28.336 L 187.000 28.333 187.000 30.250 L 187.000 32.167 189.333 32.167 L 191.667 32.167 191.667 27.750 L 191.667 23.333 194.664 23.333 L 197.661 23.333 197.706 27.708 L 197.750 32.083 217.008 32.126 L 236.266 32.168 236.479 31.126 C 240.351 12.133,250.056 3.913,261.875 9.617 L 264.167 10.724 264.167 17.316 L 264.167 23.909 263.627 23.246 C 257.042 15.159,250.250 18.463,247.946 30.875 L 247.707 32.167 258.270 32.167 L 268.833 32.167 268.833 20.250 L 268.833 8.333 272.708 8.333 C 274.840 8.334,277.384 8.410,278.362 8.502 C 289.435 9.552,296.667 18.292,296.667 30.624 L 296.667 32.167 299.499 32.167 L 302.331 32.167 302.374 20.292 L 302.417 8.417 311.833 8.417 L 321.250 8.417 321.294 13.875 L 321.338 19.333 317.502 19.333 L 313.667 19.333 313.667 25.750 L 313.667 32.167 321.403 32.167 L 329.140 32.167 329.231 31.708 C 329.281 31.456,329.596 28.775,329.932 25.750 C 330.268 22.725,330.852 17.475,331.231 14.083 L 331.920 7.917 338.022 7.873 L 344.123 7.829 344.317 9.706 C 344.423 10.739,344.579 12.221,344.664 13.000 C 344.749 13.779,344.897 15.167,344.994 16.083 C 345.326 19.242,345.998 25.591,346.332 28.733 C 346.516 30.465,346.667 31.946,346.667 32.024 C 346.667 32.103,349.442 32.167,352.833 32.167 L 359.000 32.167 359.000 25.750 L 359.000 19.333 355.164 19.333 L 351.329 19.333 351.373 13.875 L 351.417 8.417 364.667 8.417 L 377.917 8.417 377.961 13.875 L 378.005 19.333 374.169 19.333 L 370.333 19.333 370.333 25.746 L 370.333 32.158 378.958 32.204 C 390.407 32.265,389.268 32.815,391.432 26.180 C 392.107 24.110,392.740 22.192,392.838 21.917 C 392.936 21.642,393.200 20.854,393.424 20.167 C 393.648 19.479,393.911 18.692,394.008 18.417 C 394.105 18.142,394.476 17.017,394.833 15.917 C 395.190 14.817,395.564 13.692,395.664 13.417 C 396.832 10.204,399.167 2.722,399.167 2.193 C 399.167 1.669,399.072 1.449,398.728 1.179 L 398.288 0.833 199.970 0.833 L 1.652 0.833 1.242 1.242 M280.167 26.324 L 280.167 32.167 282.667 32.167 L 285.167 32.167 285.166 30.875 C 285.166 26.525,283.272 22.252,280.695 20.782 L 280.167 20.481 280.167 26.324 M337.602 22.031 C 337.556 22.335,337.477 24.740,337.426 27.375 L 337.335 32.167 337.938 32.167 L 338.541 32.167 338.417 28.792 C 338.207 23.075,338.100 21.616,337.885 21.544 C 337.767 21.505,337.651 21.704,337.602 22.031 M11.557 64.325 C 10.073 65.184,10.504 64.117,5.586 79.083 C 3.597 85.133,1.869 90.346,1.745 90.667 C 1.622 90.987,1.431 91.550,1.322 91.917 C 1.213 92.283,1.059 92.756,0.979 92.966 C 0.732 93.617,0.816 94.434,1.179 94.894 L 1.524 95.333 199.983 95.333 L 398.442 95.333 398.804 94.948 C 399.202 94.525,399.274 93.768,398.998 92.928 C 398.906 92.647,397.716 89.042,396.354 84.917 C 394.992 80.792,393.686 76.817,393.451 76.083 C 393.216 75.350,392.940 74.525,392.839 74.250 C 392.737 73.975,392.134 72.161,391.499 70.219 C 390.140 66.060,389.798 65.281,389.103 64.761 C 387.942 63.893,388.198 63.913,378.958 63.963 L 370.333 64.009 370.333 76.504 L 370.333 89.000 364.667 89.000 L 359.000 89.000 359.000 76.500 L 359.000 64.000 354.503 64.000 L 350.006 64.000 350.089 64.708 C 350.135 65.098,350.358 67.217,350.584 69.417 C 351.031 73.761,351.263 75.969,351.504 78.167 C 351.589 78.946,351.849 81.458,352.081 83.750 C 352.313 86.042,352.536 88.160,352.575 88.458 L 352.646 89.000 347.006 89.000 L 341.367 89.000 341.267 87.875 C 341.212 87.256,341.093 84.688,341.001 82.167 C 340.909 79.646,340.788 76.927,340.733 76.125 L 340.631 74.667 337.843 74.667 L 335.056 74.667 334.861 77.542 C 334.753 79.123,334.584 81.542,334.485 82.917 C 334.386 84.292,334.254 86.204,334.194 87.167 L 334.083 88.917 328.458 88.961 C 325.365 88.985,322.834 88.947,322.835 88.877 C 322.835 88.807,322.910 88.112,323.001 87.333 C 323.147 86.076,323.709 81.066,325.078 68.833 C 325.309 66.771,325.539 64.840,325.590 64.542 L 325.682 64.000 319.674 64.000 L 313.667 64.000 313.667 71.000 L 313.667 78.000 317.500 78.000 L 321.333 78.000 321.333 83.500 L 321.333 89.000 311.833 89.000 L 302.333 89.000 302.333 76.500 L 302.333 64.000 299.572 64.000 C 297.021 64.000,296.817 64.022,296.897 64.292 C 297.779 67.290,299.313 82.311,299.331 88.127 L 299.333 89.004 293.625 88.961 L 287.917 88.917 287.881 87.167 C 287.749 80.664,286.793 71.621,285.740 66.917 C 285.493 65.817,285.255 64.710,285.210 64.458 L 285.129 64.000 282.648 64.000 L 280.167 64.000 280.167 76.500 L 280.167 89.000 274.500 89.000 L 268.833 89.000 268.833 76.500 L 268.833 64.000 266.500 64.000 L 264.167 64.000 264.167 76.489 C 264.167 88.240,264.149 88.983,263.875 89.062 C 262.149 89.561,254.513 89.768,252.833 89.361 C 243.869 87.188,238.417 79.213,235.925 64.625 L 235.818 64.000 225.659 64.000 C 220.072 64.000,215.500 64.052,215.500 64.116 C 215.500 65.651,218.553 66.702,220.477 65.830 C 220.876 65.648,221.272 65.500,221.355 65.500 C 221.443 65.500,221.488 66.818,221.462 68.624 L 221.417 71.749 220.750 71.972 C 215.799 73.626,210.890 70.632,209.253 64.958 L 208.976 64.000 207.575 64.000 L 206.173 64.000 206.128 67.958 L 206.083 71.917 203.042 71.962 L 200.000 72.008 200.000 67.996 L 200.000 63.985 198.875 64.034 L 197.750 64.083 197.705 68.042 L 197.661 72.000 194.664 72.000 L 191.667 72.000 191.667 68.000 L 191.667 64.000 189.313 64.000 L 186.959 64.000 187.035 64.914 C 187.156 66.385,187.951 66.879,189.175 66.246 L 189.667 65.991 189.667 68.660 L 189.667 71.328 188.792 71.787 C 187.550 72.438,185.515 72.452,184.166 71.819 C 182.072 70.838,181.157 69.176,181.012 66.094 L 180.917 64.083 168.792 64.041 L 156.667 63.998 156.667 70.999 L 156.667 78.000 160.500 78.000 L 164.333 78.000 164.333 83.500 L 164.333 89.000 154.917 89.000 L 145.500 89.000 145.500 76.500 L 145.500 64.000 143.000 64.000 L 140.500 64.000 140.500 76.500 L 140.500 89.000 134.833 89.000 L 129.167 89.000 129.167 76.500 L 129.167 64.000 127.065 64.000 L 124.963 64.000 125.058 64.542 C 127.630 79.225,121.640 89.574,110.583 89.550 C 108.337 89.546,106.267 89.256,104.667 88.722 L 103.750 88.417 103.706 82.625 C 103.682 79.440,103.687 76.833,103.716 76.833 C 103.746 76.833,104.220 77.010,104.770 77.225 C 112.254 80.158,116.145 75.014,113.902 65.150 L 113.640 64.000 107.219 64.000 L 100.797 64.000 100.905 64.429 C 101.740 67.755,101.616 74.551,100.655 78.208 C 98.295 87.186,89.430 91.806,80.500 88.712 L 79.583 88.395 79.539 82.595 C 79.498 77.111,79.512 76.803,79.789 76.919 C 88.093 80.396,92.589 74.586,89.563 64.290 C 89.482 64.014,88.909 64.000,79.780 64.040 L 70.083 64.083 70.083 71.000 L 70.083 77.917 73.875 77.961 L 77.667 78.006 77.667 83.503 L 77.667 89.000 68.250 89.000 L 58.833 89.000 58.833 76.500 L 58.833 64.000 56.333 64.000 L 53.833 64.000 53.833 76.502 L 53.833 89.005 48.884 88.961 L 43.935 88.917 42.073 77.667 C 41.049 71.479,40.119 65.873,40.007 65.208 L 39.803 64.000 38.466 64.000 L 37.130 64.000 37.233 67.542 C 37.290 69.490,37.410 73.783,37.499 77.083 C 37.589 80.383,37.705 84.415,37.758 86.042 L 37.855 89.000 32.261 89.000 L 26.667 89.000 26.667 76.500 L 26.667 64.000 19.875 63.998 C 16.140 63.996,12.933 63.958,12.750 63.911 C 12.555 63.862,12.059 64.034,11.557 64.325 M247.552 64.229 C 247.600 64.354,247.691 64.823,247.753 65.270 C 248.372 69.707,250.319 74.822,252.157 76.841 L 252.985 77.750 252.992 70.875 L 253.000 64.000 250.232 64.000 C 247.955 64.000,247.480 64.041,247.552 64.229 " stroke="none" fill="#fbfbfb" fill-rule="evenodd"></path></g></svg>